<svg width="88" height="88" viewBox="0 0 88 88" fill="none" xmlns="http://www.w3.org/2000/svg" role="img" aria-labelledby="legacyCoreMarkTitle legacyCoreMarkDesc">
  <title id="legacyCoreMarkTitle">Legacy Core mark</title>
  <desc id="legacyCoreMarkDesc">Shield-based LC monogram.</desc>
  <defs>
    <linearGradient id="legacyCoreMarkShield" x1="12" y1="10" x2="76" y2="78" gradientUnits="userSpaceOnUse">
      <stop stop-color="#1E3A8A"/>
      <stop offset="1" stop-color="#0A2540"/>
    </linearGradient>
  </defs>
  <rect x="4" y="4" width="80" height="80" rx="24" fill="#0B1220"/>
  <path d="M44 12L66 20V40C66 54.6 57.2 67.9 44 74C30.8 67.9 22 54.6 22 40V20L44 12Z" fill="url(#legacyCoreMarkShield)" stroke="#C0C0C0" stroke-width="2"/>
  <path d="M35 30V53H49" stroke="#F8FAFC" stroke-width="5" stroke-linecap="round" stroke-linejoin="round"/>
  <path d="M56 31C53.3 29.1 50.7 28.2 47.8 28.2C41.9 28.2 37.7 32.4 37.7 39.8C37.7 47.3 41.9 51.6 47.8 51.6C50.6 51.6 53.2 50.8 56 48.9" stroke="#C0C0C0" stroke-width="4" stroke-linecap="round"/>
</svg>
